# Alias OBJ Model File
# Exported from SketchUp, (c) 2000-2012 Trimble Navigation Limited
# File units = meters

mtllib wing.mtl

g Mesh1 Model

usemtl FrontColor
v 0.893036 0 -0
vt -35.1589 0
vn 0 -1 -0
v 0 0 -0
vt 0 0
v -0.0971863 0 -0.318732
vt 3.82623 12.5485
v -0.177089 0 -0.64223
vt 6.972 25.2846
v -0.239477 0 -0.969557
vt 9.42821 38.1715
v -0.284169 0 -1.29977
vt 11.1877 51.1719
v -0.311036 0 -1.6319
vt 12.2455 64.2481
v -0.32 0 -1.965
vt 12.5984 77.3622
v -0.311036 0 -2.2981
vt 12.2455 90.4763
v -0.284169 0 -2.63023
vt 11.1877 103.553
v -0.239477 0 -2.96044
vt 9.42821 116.553
v -0.177089 0 -3.28777
vt 6.972 129.44
v -0.0971863 0 -3.61127
vt 3.82623 142.176
v 0 0 -3.93
vt 0 154.724
v 0.0737616 0 -4.15216
vt -2.904 163.471
v 0.195693 0 -4.35199
vt -7.70443 171.338
v 0.359519 0 -4.51919
vt -14.1543 177.921
v 0.556813 0 -4.64517
vt -21.9218 182.881
v 0.777424 0 -4.72345
vt -30.6072 185.963
v 1.01 0 -4.75
vt -39.7638 187.008
v 1.24258 0 -4.72345
vt -48.9203 185.963
v 1.46319 0 -4.64517
vt -57.6058 182.881
v 1.66048 0 -4.51919
vt -65.3733 177.921
v 1.82431 0 -4.35199
vt -71.8231 171.338
v 1.94624 0 -4.15216
vt -76.6236 163.471
v 2.02 0 -3.93
vt -79.5276 154.724
v 1.77604 0 -3.67029
vt -69.923 144.5
v 1.55539 0 -3.39051
vt -61.2359 133.485
v 1.35969 0 -3.09275
vt -53.5311 121.762
v 1.19039 0 -2.77922
vt -46.8658 109.418
v 1.04876 0 -2.45226
vt -41.2898 96.5457
v 0.935851 0 -2.11431
vt -36.8445 83.2404
v 0.852505 0 -1.76787
vt -33.5632 69.6013
v 0.799344 0 -1.41554
vt -31.4702 55.73
v 0.776762 0 -1.05994
vt -30.5812 41.73
v 0.784929 0 -0.703717
vt -30.9027 27.7054
v 0.823783 0 -0.349523
vt -32.4324 13.7608
f 1/1/1 2/2/1 3/3/1 4/4/1 5/5/1 6/6/1 7/7/1 8/8/1 9/9/1 10/10/1 11/11/1 12/12/1 13/13/1 14/14/1 15/15/1 16/16/1 17/17/1 18/18/1 19/19/1 20/20/1 21/21/1 22/22/1 23/23/1 24/24/1 25/25/1 26/26/1 27/27/1 28/28/1 29/29/1 30/30/1 31/31/1 32/32/1 33/33/1 34/34/1 35/35/1 36/36/1 37/37/1 

vn 0 0 1
vt 35.1589 0
v 0.893036 0.26 -0
vt 35.1589 10.2362
v 0 0.26 -0
vt 0 10.2362
f 2/2/2 1/38/2 38/39/2 39/40/2 

vt -6.83335 0
vn 0.980931 0 -0.194356
vt 7.19492 0
vn 0.988405 0 -0.151842
v 0.823783 0.26 -0.349523
vt 7.19492 10.2362
vt -6.83335 10.2362
f 1/41/3 37/42/4 40/43/4 38/44/3 

vt 10.1421 0
vt 24.1704 0
vn 0.997817 0 -0.066044
v 0.784929 0.26 -0.703717
vt 24.1704 10.2362
vt 10.1421 10.2362
f 37/45/4 36/46/5 41/47/5 40/48/4 

vt 26.9898 0
vt 41.0181 0
vn 0.999795 0 0.0202459
v 0.776762 0.26 -1.05994
vt 41.0181 10.2362
vt 26.9898 10.2362
f 36/49/5 35/50/6 42/51/6 41/52/5 

vt 43.5841 0
vt 57.6124 0
vn 0.994325 0 0.106385
v 0.799344 0.26 -1.41554
vt 57.6124 10.2362
vt 43.5841 10.2362
f 35/53/6 34/54/7 43/55/7 42/56/6 

vt 59.8015 0
vt 73.8298 0
vn 0.981447 0 0.191732
v 0.852505 0.26 -1.76787
vt 73.8298 10.2362
vt 59.8015 10.2362
f 34/57/7 33/58/8 44/59/8 43/60/7 

vt 75.5212 0
vt 89.5494 0
vn 0.961258 0 0.27565
v 0.935851 0.26 -2.11431
vt 89.5494 10.2362
vt 75.5212 10.2362
f 33/61/8 32/62/9 45/63/9 44/64/8 

vt 90.6259 0
vt 104.654 0
vn 0.933908 0 0.357514
v 1.04876 0.26 -2.45226
vt 104.654 10.2362
vt 90.6259 10.2362
f 32/65/9 31/66/10 46/67/10 45/68/9 

vt 105.003 0
vt 119.032 0
vn 0.8996 0 0.436715
v 1.19039 0.26 -2.77922
vt 119.032 10.2362
vt 105.003 10.2362
f 31/69/10 30/70/11 47/71/11 46/72/10 

vt 118.546 0
vt 132.574 0
vn 0.85859 0 0.512663
v 1.35969 0.26 -3.09275
vt 132.574 10.2362
vt 118.546 10.2362
f 30/73/11 29/74/12 48/75/12 47/76/11 

vt 131.154 0
vt 145.182 0
vn 0.811184 0 0.584792
v 1.55539 0.26 -3.39051
vt 145.182 10.2362
vt 131.154 10.2362
f 29/77/12 28/78/13 49/79/13 48/80/12 

vt 142.732 0
vt 156.76 0
vn 0.757734 0 0.652563
v 1.77604 0.26 -3.67029
vt 156.76 10.2362
vt 142.732 10.2362
f 28/81/13 27/82/14 50/83/14 49/84/13 

vt 153.194 0
vt 167.222 0
vn 0.728866 0 0.684656
v 2.02 0.26 -3.93
vt 167.222 10.2362
vt 153.194 10.2362
f 27/85/14 26/86/15 51/87/15 50/88/14 

vt 121.783 0
vn 0.949057 0 -0.315104
vt 130.999 0
vn 0.907197 0 -0.420706
v 1.94624 0.26 -4.15216
vt 130.999 10.2362
vt 121.783 10.2362
f 26/89/16 25/90/17 52/91/17 51/92/16 

vt 99.6321 0
vt 108.848 0
vn 0.789048 0 -0.614331
v 1.82431 0.26 -4.35199
vt 108.848 10.2362
vt 99.6321 10.2362
f 25/93/17 24/94/18 53/95/18 52/96/17 

vt 72.1182 0
vt 81.3342 0
vn 0.630303 0 -0.776349
v 1.66048 0.26 -4.51919
vt 81.3342 10.2362
vt 72.1182 10.2362
f 24/97/18 23/98/19 54/99/19 53/100/18 

vt 40.6568 0
vt 49.8728 0
vn 0.439129 0 -0.898424
v 1.46319 0.26 -4.64517
vt 49.8728 10.2362
vt 40.6568 10.2362
f 23/101/19 22/102/20 55/103/20 54/104/19 

vt 6.8665 0
vt 16.0825 0
vn 0.225362 0 -0.974275
v 1.24258 0.26 -4.72345
vt 16.0825 10.2362
vt 6.8665 10.2362
f 22/105/20 21/106/21 56/107/21 55/108/20 

vt -27.5142 0
vt -18.2981 0
vn 1.52949e-15 0 -1
v 1.01 0.26 -4.75
vt -18.2981 10.2362
vt -27.5142 10.2362
f 21/109/21 20/110/22 57/111/22 56/112/21 

vt -60.7163 0
vt -51.5003 0
vn -0.225362 0 -0.974275
v 0.777424 0.26 -4.72345
vt -51.5003 10.2362
vt -60.7163 10.2362
f 20/113/22 19/114/23 58/115/23 57/116/22 

vt -91.0317 0
vt -81.8157 0
vn -0.439129 0 -0.898424
v 0.556813 0.26 -4.64517
vt -81.8157 10.2362
vt -91.0317 10.2362
f 19/117/23 18/118/24 59/119/24 58/120/23 

vt -116.901 0
vt -107.685 0
vn -0.630303 0 -0.776349
v 0.359519 0.26 -4.51919
vt -107.685 10.2362
vt -116.901 10.2362
f 18/121/24 17/122/25 60/123/25 59/124/24 

vt -136.992 0
vt -127.776 0
vn -0.789048 0 -0.614331
v 0.195693 0.26 -4.35199
vt -127.776 10.2362
vt -136.992 10.2362
f 17/125/25 16/126/26 61/127/26 60/128/25 

vt -150.272 0
vt -141.056 0
vn -0.907197 0 -0.420706
v 0.0737616 0.26 -4.15216
vt -141.056 10.2362
vt -150.272 10.2362
f 16/129/26 15/130/27 62/131/27 61/132/26 

vt -156.058 0
vt -146.842 0
vn -0.949057 0 -0.315104
v 0 0.26 -3.93
vt -146.842 10.2362
vt -156.058 10.2362
f 15/133/27 14/134/28 63/135/28 62/136/27 

vt -147.997 0
vn -0.956523 0 -0.291658
vt -134.879 0
vn -0.964023 0 -0.26582
v -0.0971863 0.26 -3.61127
vt -134.879 10.2362
vt -147.997 10.2362
f 14/137/29 13/138/30 64/139/30 63/140/29 

vt -137.11 0
vt -123.992 0
vn -0.976924 0 -0.213585
v -0.177089 0.26 -3.28777
vt -123.992 10.2362
vt -137.11 10.2362
f 13/141/30 12/142/31 65/143/31 64/144/30 

vt -125.845 0
vt -112.727 0
vn -0.986998 0 -0.160732
v -0.239477 0.26 -2.96044
vt -112.727 10.2362
vt -125.845 10.2362
f 12/145/31 11/146/32 66/147/32 65/148/31 

vt -114.235 0
vt -101.116 0
vn -0.994214 0 -0.107414
v -0.284169 0.26 -2.63023
vt -101.116 10.2362
vt -114.235 10.2362
f 11/149/32 10/150/33 67/151/33 66/152/32 

vt -102.313 0
vt -89.1944 0
vn -0.998553 0 -0.053785
v -0.311036 0.26 -2.2981
vt -89.1944 10.2362
vt -102.313 10.2362
f 10/153/33 9/154/34 68/155/34 67/156/33 

vt -90.1142 0
vt -76.9953 0
vn -1 0 -2.9501e-17
v -0.32 0.26 -1.965
vt -76.9953 10.2362
vt -90.1142 10.2362
f 9/157/34 8/158/35 69/159/35 68/160/34 

vt -77.6731 0
vt -64.5542 0
vn -0.998553 0 0.053785
v -0.311036 0.26 -1.6319
vt -64.5542 10.2362
vt -77.6731 10.2362
f 8/161/35 7/162/36 70/163/36 69/164/35 

vt -65.0262 0
vt -51.9073 0
vn -0.994214 0 0.107414
v -0.284169 0.26 -1.29977
vt -51.9073 10.2362
vt -65.0262 10.2362
f 7/165/36 6/166/37 71/167/37 70/168/36 

vt -52.2101 0
vt -39.0912 0
vn -0.986998 0 0.160732
v -0.239477 0.26 -0.969557
vt -39.0912 10.2362
vt -52.2101 10.2362
f 6/169/37 5/170/38 72/171/38 71/172/37 

vt -39.2618 0
vt -26.1429 0
vn -0.976924 0 0.213585
v -0.177089 0.26 -0.64223
vt -26.1429 10.2362
vt -39.2618 10.2362
f 5/173/38 4/174/39 73/175/39 72/176/38 

vt -26.2188 0
vt -13.0999 0
vn -0.964023 0 0.26582
v -0.0971863 0.26 -0.318732
vt -13.0999 10.2362
vt -26.2188 10.2362
f 4/177/39 3/178/40 74/179/40 73/180/39 

vt -13.1189 0
vn -0.956523 0 0.291658
vt -13.1189 10.2362
f 3/181/40 2/2/41 39/40/41 74/182/40 

vn 0 1 -0
vt 32.4324 13.7608
vt 30.9027 27.7054
vt 30.5812 41.73
vt 31.4702 55.73
vt 33.5632 69.6013
vt 36.8445 83.2404
vt 41.2898 96.5457
vt 46.8658 109.418
vt 53.5311 121.762
vt 61.2359 133.485
vt 69.923 144.5
vt 79.5276 154.724
vt 76.6236 163.471
vt 71.8231 171.338
vt 65.3733 177.921
vt 57.6058 182.881
vt 48.9203 185.963
vt 39.7638 187.008
vt 30.6072 185.963
vt 21.9218 182.881
vt 14.1543 177.921
vt 7.70443 171.338
vt 2.904 163.471
vt -3.82623 142.176
vt -6.972 129.44
vt -9.42821 116.553
vt -11.1877 103.553
vt -12.2455 90.4763
vt -12.5984 77.3622
vt -12.2455 64.2481
vt -11.1877 51.1719
vt -9.42821 38.1715
vt -6.972 25.2846
vt -3.82623 12.5485
f 39/2/42 38/38/42 40/183/42 41/184/42 42/185/42 43/186/42 44/187/42 45/188/42 46/189/42 47/190/42 48/191/42 49/192/42 50/193/42 51/194/42 52/195/42 53/196/42 54/197/42 55/198/42 56/199/42 57/200/42 58/201/42 59/202/42 60/203/42 61/204/42 62/205/42 63/14/42 64/206/42 65/207/42 66/208/42 67/209/42 68/210/42 69/211/42 70/212/42 71/213/42 72/214/42 73/215/42 74/216/42 

